<?xml version="1.0" standalone="no"?>
<!DOCTYPE svg PUBLIC "-//W3C//DTD SVG 20010904//EN"
 "http://www.w3.org/TR/2001/REC-SVG-20010904/DTD/svg10.dtd">
<svg version="1.0" xmlns="http://www.w3.org/2000/svg"
 width="1123.000000pt" height="1123.000000pt" viewBox="0 0 1123.000000 1123.000000"
 preserveAspectRatio="xMidYMid meet">
<metadata>
Created by potrace 1.14, written by Peter Selinger 2001-2017
</metadata>
<g transform="translate(0.000000,1123.000000) scale(0.100000,-0.100000)"
fill="#000000" stroke="none">
<path d="M8482 10020 c-90 -75 -132 -441 -81 -707 35 -187 81 -325 156 -476
24 -48 41 -92 38 -96 -6 -10 -106 -64 -110 -59 -1 2 -22 35 -45 73 -75 122
-138 212 -166 234 -52 41 -151 22 -189 -36 -35 -53 -26 -99 36 -193 63 -95
123 -199 118 -204 -9 -6 -169 -86 -173 -86 -3 0 -23 33 -45 73 -23 39 -69 113
-104 162 -54 78 -68 92 -104 103 -54 17 -116 0 -146 -39 -28 -38 -32 -106 -10
-146 49 -87 101 -173 131 -218 l33 -50 -68 -32 -68 -31 -15 21 c-53 77 -136
181 -187 236 -56 62 -61 64 -113 68 -65 5 -95 -9 -127 -56 -45 -67 -32 -102
99 -262 44 -54 77 -102 74 -107 -7 -11 -91 -42 -114 -42 -8 0 -68 56 -134 124
-139 146 -167 166 -233 166 -42 0 -52 -5 -86 -39 -34 -33 -39 -45 -39 -82 1
-57 8 -69 113 -180 l89 -93 -49 -22 c-93 -43 -91 -43 -163 42 -95 112 -186
193 -248 222 -47 21 -59 23 -91 13 -20 -6 -50 -24 -66 -41 -26 -27 -30 -39
-30 -86 0 -60 2 -63 122 -163 40 -33 119 -129 112 -135 -15 -12 -100 -47 -124
-51 -26 -4 -35 1 -69 43 -55 68 -171 166 -234 198 -122 62 -232 13 -232 -103
0 -54 33 -94 109 -133 52 -26 126 -93 133 -119 3 -11 -91 -57 -138 -68 -16 -4
-36 9 -80 52 -97 96 -170 152 -248 191 -89 44 -127 42 -184 -11 -34 -31 -37
-38 -37 -88 0 -66 23 -96 101 -133 58 -28 153 -108 141 -120 -15 -15 -164 -33
-282 -33 -211 -1 -581 32 -1015 90 -188 25 -479 68 -500 74 -8 2 -91 17 -185
32 -156 24 -195 27 -465 27 -270 1 -305 -1 -410 -22 -63 -13 -146 -33 -185
-44 -417 -125 -813 -447 -933 -758 -36 -93 -61 -217 -82 -412 -11 -103 -27
-225 -35 -270 -8 -46 -21 -144 -30 -218 -49 -418 -121 -643 -264 -823 -33 -42
-89 -99 -123 -126 -68 -55 -233 -142 -312 -165 -48 -15 -54 -14 -140 12 -80
23 -108 26 -236 27 -138 0 -149 -2 -215 -29 -88 -37 -197 -142 -237 -226 -58
-126 -72 -200 -72 -385 1 -182 -1 -167 94 -600 25 -114 30 -157 27 -230 -3
-82 -7 -96 -40 -156 -44 -78 -45 -98 -12 -155 31 -53 85 -73 146 -55 79 24
155 156 169 295 14 137 -3 254 -86 591 -25 99 -27 129 -28 295 -1 208 10 262
67 326 37 43 68 60 135 72 44 8 136 1 148 -11 2 -2 -25 -61 -61 -130 -67 -134
-135 -324 -135 -379 0 -97 112 -159 194 -108 39 24 46 36 92 170 40 118 111
268 167 351 36 55 40 58 129 89 290 101 505 281 647 541 105 193 161 416 220
879 5 41 17 120 25 175 9 55 25 178 36 273 31 267 85 394 225 533 329 326 758
458 1325 409 107 -10 387 -50 490 -70 43 -9 150 -24 485 -70 372 -50 733 -80
963 -80 321 0 401 24 1156 342 365 154 466 193 761 298 274 97 285 101 535
213 206 91 528 250 758 372 l123 65 72 -49 c131 -89 216 -110 278 -68 46 31
61 62 56 120 -5 61 -31 89 -122 131 -71 33 -148 102 -199 176 -71 105 -142
279 -181 446 -25 103 -44 294 -30 294 4 0 31 -22 60 -48 81 -75 225 -188 380
-300 172 -125 251 -195 380 -336 193 -212 291 -310 445 -446 373 -329 559
-592 735 -1035 76 -192 119 -291 195 -450 101 -213 104 -224 104 -305 1 -82
-11 -112 -86 -222 -52 -78 -98 -108 -164 -108 -102 0 -195 46 -434 215 -80 56
-264 173 -410 260 -330 196 -391 236 -460 306 -84 82 -105 147 -104 309 0 145
20 234 92 420 25 63 47 133 49 155 10 104 -113 170 -204 110 -48 -32 -145
-287 -182 -478 -37 -190 -22 -400 35 -521 l18 -36 -45 -47 c-24 -26 -112 -117
-195 -203 -585 -602 -698 -757 -806 -1110 -16 -52 -41 -133 -55 -180 -53 -178
-113 -317 -174 -406 -15 -23 -62 -78 -104 -124 -116 -126 -193 -302 -225 -510
-26 -175 -31 -242 -40 -570 -9 -327 -26 -537 -52 -620 -6 -19 -12 -141 -15
-270 -4 -201 -2 -259 16 -400 22 -168 64 -391 101 -534 11 -44 20 -85 20 -93
0 -10 -23 -13 -102 -13 -57 0 -110 5 -118 10 -13 8 -16 65 -21 377 -6 381 -8
400 -58 601 -33 131 -41 208 -51 467 -15 388 -58 621 -162 874 -28 70 -73 180
-100 246 -81 198 -92 257 -90 485 2 219 -4 245 -67 287 -41 28 -75 29 -121 4
-60 -32 -71 -63 -73 -208 -1 -70 0 -177 3 -237 l5 -110 -30 -7 c-17 -4 -108
-12 -202 -18 -95 -6 -251 -16 -345 -22 -213 -14 -596 -6 -738 15 -132 20 -329
76 -591 167 -363 126 -683 235 -729 247 -155 42 -286 72 -358 82 -45 7 -85 16
-88 21 -3 5 33 71 79 146 182 299 258 433 264 466 11 72 -57 147 -135 147 -62
0 -86 -30 -296 -380 -297 -494 -494 -797 -699 -1071 -127 -171 -171 -245 -239
-399 -104 -234 -169 -524 -198 -870 -18 -223 -24 -644 -11 -792 14 -156 53
-320 106 -442 19 -43 31 -84 28 -89 -6 -10 -199 -3 -240 9 -24 7 -22 -13 -49
334 -8 113 -29 297 -46 410 -16 113 -36 250 -43 305 -8 55 -19 124 -25 154
-18 93 -12 192 20 343 99 464 120 646 120 1039 -1 156 -7 380 -14 498 -15 237
-19 249 -90 285 -50 25 -99 15 -143 -29 l-34 -34 8 -243 c4 -134 7 -380 7
-548 -2 -271 -5 -324 -27 -480 -15 -96 -42 -245 -61 -330 -46 -207 -60 -325
-52 -435 6 -82 63 -505 86 -635 18 -103 49 -504 56 -718 8 -236 13 -259 73
-299 78 -53 174 -11 195 84 l7 31 195 1 195 0 21 -47 c23 -54 58 -161 58 -179
0 -20 -329 -18 -424 3 -90 20 -135 13 -175 -27 -38 -37 -48 -87 -29 -137 20
-53 63 -77 176 -99 180 -34 599 -19 685 24 36 18 67 69 67 110 0 108 -133 491
-222 639 -171 283 -210 554 -165 1149 31 418 68 613 163 859 50 130 126 259
254 431 62 83 173 241 247 352 l134 203 69 0 c140 0 385 -60 735 -179 127 -44
355 -122 507 -174 299 -102 475 -149 633 -169 157 -20 750 -15 1030 7 127 11
259 19 294 20 l64 0 64 -150 c35 -82 79 -195 97 -250 66 -195 106 -467 106
-725 0 -166 18 -310 62 -500 l41 -175 8 -400 c4 -220 7 -434 8 -476 l1 -76 83
-6 c45 -4 105 -11 132 -16 28 -5 120 -10 206 -10 l155 -1 47 -124 c26 -68 47
-129 47 -135 0 -16 -113 -14 -204 3 -41 8 -120 29 -174 45 -116 36 -146 38
-189 11 -91 -55 -80 -186 20 -230 83 -37 254 -79 385 -96 124 -16 140 -16 239
0 244 37 288 105 198 306 -133 302 -247 699 -306 1070 -31 192 -34 595 -6 700
19 71 39 351 56 775 12 285 29 426 68 549 32 105 59 151 143 243 161 176 234
328 356 738 101 341 154 417 639 930 115 121 237 249 272 285 71 74 55 75 170
-6 32 -23 157 -100 278 -172 223 -132 407 -251 570 -367 215 -153 418 -218
563 -181 175 44 294 164 395 398 30 69 32 79 31 193 0 137 -3 145 -122 402
-94 201 -137 300 -182 418 -156 410 -346 705 -640 996 l-128 126 49 38 c75 57
99 90 99 137 0 54 -26 94 -78 120 -38 18 -49 19 -83 9 -21 -6 -69 -36 -106
-66 -38 -30 -73 -55 -79 -55 -5 0 -22 13 -37 28 l-27 28 26 36 c32 45 130 124
212 172 70 42 92 68 98 123 7 56 -22 103 -79 127 -40 17 -52 18 -87 7 -58 -17
-204 -119 -283 -196 l-68 -68 -30 29 c-16 15 -29 34 -29 41 0 7 20 51 45 96
33 62 45 95 45 126 0 77 -52 131 -125 131 -57 0 -91 -24 -131 -93 -20 -34 -38
-64 -39 -66 -2 -1 -21 10 -42 27 -21 16 -108 81 -193 144 -257 190 -424 345
-482 448 -54 96 -72 110 -142 110 -45 -1 -67 -6 -84 -20z"/>
<path d="M10032 7968 c-18 -11 -42 -38 -52 -59 -55 -107 18 -229 138 -229 89
0 156 66 156 154 0 121 -138 198 -242 134z"/>
</g>
</svg>
